G04 EAGLE Gerber RS-274X export*
G75*
%MOMM*%
%FSLAX34Y34*%
%LPD*%
%INTop Copper*%
%IPPOS*%
%AMOC8*
5,1,8,0,0,1.08239X$1,22.5*%
G01*
%ADD10P,1.539592X8X112.500000*%
%ADD11P,1.732040X8X22.500000*%
%ADD12C,1.270000*%
%ADD13P,1.312723X8X292.500000*%
%ADD14P,1.312723X8X112.500000*%
%ADD15P,1.312723X8X22.500000*%
%ADD16P,2.749271X8X292.500000*%
%ADD17C,0.254000*%
%ADD18C,1.400000*%


D10*
X251460Y210820D03*
X251460Y236220D03*
D11*
X162560Y63500D03*
X187960Y63500D03*
D12*
X124460Y116840D03*
X149860Y116840D03*
X149860Y193040D03*
X124460Y193040D03*
X175260Y116840D03*
X200660Y116840D03*
X175260Y193040D03*
X200660Y193040D03*
D13*
X55880Y170180D03*
X55880Y144780D03*
D14*
X111760Y50800D03*
X111760Y76200D03*
D15*
X251460Y149860D03*
X276860Y149860D03*
X96520Y236220D03*
X121920Y236220D03*
D16*
X419286Y149930D03*
X419286Y74746D03*
D17*
X200660Y76200D02*
X200660Y116840D01*
X200660Y76200D02*
X187960Y63500D01*
X55880Y170180D02*
X55880Y231140D01*
X60960Y236220D02*
X96520Y236220D01*
X60960Y236220D02*
X55880Y231140D01*
X55880Y170180D02*
X45720Y170180D01*
X43180Y167640D01*
X43180Y40640D01*
X43180Y38100D01*
X43180Y17780D01*
X48260Y12700D01*
X223520Y12700D01*
X223520Y114300D01*
X220980Y116840D01*
X200660Y116840D01*
X223520Y12700D02*
X280400Y12700D01*
X280400Y74660D01*
X281940Y76200D01*
X417832Y76200D01*
X419286Y74746D01*
D18*
X43180Y38100D03*
D17*
X124460Y116840D02*
X124460Y193040D01*
X149860Y76200D02*
X162560Y63500D01*
X149860Y76200D02*
X149860Y93980D01*
X149860Y116840D01*
X182880Y93980D02*
X187960Y99060D01*
X182880Y93980D02*
X149860Y93980D01*
X187960Y144780D02*
X193040Y149860D01*
X251460Y149860D01*
X187960Y144780D02*
X187960Y99060D01*
X137160Y50800D02*
X111760Y50800D01*
X137160Y50800D02*
X137160Y127000D01*
X142240Y132080D01*
X167640Y132080D01*
X55880Y144780D02*
X55880Y53340D01*
X58420Y50800D01*
X111760Y50800D01*
X175260Y124460D02*
X167640Y132080D01*
X175260Y124460D02*
X175260Y116840D01*
X121920Y236220D02*
X251460Y236220D01*
X274320Y236220D01*
X276860Y233680D01*
X276860Y149860D01*
X419216Y149860D02*
X419286Y149930D01*
X419216Y149860D02*
X276860Y149860D01*
X111760Y76200D02*
X93980Y76200D01*
X88900Y81280D01*
X88900Y210820D01*
X96520Y218440D01*
X116840Y218440D01*
X121920Y223520D01*
X121920Y236220D01*
X251460Y210820D02*
X251460Y195580D01*
X248920Y193040D01*
X200660Y193040D01*
X175260Y193040D02*
X175260Y160020D01*
D18*
X175260Y160020D03*
M02*
