M48
;GenerationSoftware,Autodesk,EAGLE,9.3.1*%
;CreationDate,2019-06-05T17:07:36Z*%
FMAT,2
ICI,OFF
METRIC,TZ,000.0000
T4C0.8000
T3C0.8128
T2C1.0000
T1C1.0160
%
G90
M71
T1
X419286Y149930
X419286Y74746
T2
X43180Y38100
X175260Y160020
T3
X251460Y210820
X251460Y236220
X162560Y63500
X187960Y63500
X124460Y116840
X149860Y116840
X149860Y193040
X124460Y193040
X175260Y116840
X200660Y116840
X175260Y193040
X200660Y193040
X55880Y170180
X55880Y144780
X111760Y50800
X111760Y76200
X251460Y149860
X276860Y149860
X96520Y236220
X121920Y236220
T4
X20320Y205740
X20320Y53340
M30