G04 EAGLE Gerber RS-274X export*
G75*
%MOMM*%
%FSLAX34Y34*%
%LPD*%
%IN*%
%IPPOS*%
%AMOC8*
5,1,8,0,0,1.08239X$1,22.5*%
G01*
%ADD10C,0.254000*%


D10*
X0Y0D02*
X507800Y0D01*
X507800Y288800D01*
X0Y288800D01*
X0Y0D01*
X24320Y205478D02*
X24252Y204958D01*
X24116Y204451D01*
X23915Y203967D01*
X23653Y203513D01*
X23334Y203097D01*
X22963Y202726D01*
X22547Y202407D01*
X22093Y202145D01*
X21609Y201944D01*
X21102Y201808D01*
X20582Y201740D01*
X20058Y201740D01*
X19538Y201808D01*
X19031Y201944D01*
X18547Y202145D01*
X18093Y202407D01*
X17677Y202726D01*
X17306Y203097D01*
X16987Y203513D01*
X16725Y203967D01*
X16524Y204451D01*
X16388Y204958D01*
X16320Y205478D01*
X16320Y206002D01*
X16388Y206522D01*
X16524Y207029D01*
X16725Y207513D01*
X16987Y207967D01*
X17306Y208383D01*
X17677Y208754D01*
X18093Y209073D01*
X18547Y209335D01*
X19031Y209536D01*
X19538Y209672D01*
X20058Y209740D01*
X20582Y209740D01*
X21102Y209672D01*
X21609Y209536D01*
X22093Y209335D01*
X22547Y209073D01*
X22963Y208754D01*
X23334Y208383D01*
X23653Y207967D01*
X23915Y207513D01*
X24116Y207029D01*
X24252Y206522D01*
X24320Y206002D01*
X24320Y205478D01*
X24320Y53078D02*
X24252Y52558D01*
X24116Y52051D01*
X23915Y51567D01*
X23653Y51113D01*
X23334Y50697D01*
X22963Y50326D01*
X22547Y50007D01*
X22093Y49745D01*
X21609Y49544D01*
X21102Y49408D01*
X20582Y49340D01*
X20058Y49340D01*
X19538Y49408D01*
X19031Y49544D01*
X18547Y49745D01*
X18093Y50007D01*
X17677Y50326D01*
X17306Y50697D01*
X16987Y51113D01*
X16725Y51567D01*
X16524Y52051D01*
X16388Y52558D01*
X16320Y53078D01*
X16320Y53602D01*
X16388Y54122D01*
X16524Y54629D01*
X16725Y55113D01*
X16987Y55567D01*
X17306Y55983D01*
X17677Y56354D01*
X18093Y56673D01*
X18547Y56935D01*
X19031Y57136D01*
X19538Y57272D01*
X20058Y57340D01*
X20582Y57340D01*
X21102Y57272D01*
X21609Y57136D01*
X22093Y56935D01*
X22547Y56673D01*
X22963Y56354D01*
X23334Y55983D01*
X23653Y55567D01*
X23915Y55113D01*
X24116Y54629D01*
X24252Y54122D01*
X24320Y53602D01*
X24320Y53078D01*
M02*
